# xmcd CD database file
#
# Track frame offsets:
#	150
#	20812
#	37330
#	57673
#	71360
#	104697
#	130346
#	144052
#	161714
#	186820
#	200713
#
# Disc length: 2894 seconds
#
# Revision: 0
# Processed by: cddbd v1.5.2PL0 Copyright (c) Steve Scherf et al.
# Submitted via: CDex 1.51
#
DISCID=ac0b4c0b
DTITLE=Christian Escoudé Christophe Brunard - Charentes
DYEAR=2001
DGENRE=Jazz
TTITLE0=Blues de Familles
TTITLE1=Autumn Fughetta
TTITLE2=Racine
TTITLE3=Melodie pour Melodie
TTITLE4=Sonate Charentaise
TTITLE5=A Manda
TTITLE6=Les Filles de La Rochelle
TTITLE7=Les Demoiselles de Rochefort
TTITLE8=Opus en Ré
TTITLE9=Valse en Charentes
TTITLE10=Swing 16
EXTD=YEAR: 2001
EXTT0=
EXTT1=
EXTT2=
EXTT3=
EXTT4=
EXTT5=
EXTT6=
EXTT7=
EXTT8=
EXTT9=
EXTT10=
PLAYORDER=
